<?xml version="1.0" standalone="no"?>
<!DOCTYPE svg PUBLIC "-//W3C//DTD SVG 20010904//EN"
 "http://www.w3.org/TR/2001/REC-SVG-20010904/DTD/svg10.dtd">
<svg version="1.0" xmlns="http://www.w3.org/2000/svg"
 width="250.000000pt" height="250.000000pt" viewBox="0 0 250.000000 250.000000"
 preserveAspectRatio="xMidYMid meet">
<metadata>
Created by potrace 1.11, written by Peter Selinger 2001-2013
</metadata>
<g transform="translate(0.000000,250.000000) scale(0.100000,-0.100000)"
fill="#000000" stroke="none">
<path d="M1314 2298 c-15 -4 -30 -11 -33 -16 -12 -19 -51 -24 -57 -8 -7 18
-25 20 -68 7 -17 -5 -65 -20 -106 -32 -203 -63 -403 -207 -553 -401 -55 -71
-139 -283 -161 -406 -7 -41 8 -28 43 38 14 25 27 47 31 50 3 3 21 25 40 50 38
50 135 147 170 170 12 8 28 20 34 26 19 18 139 94 149 94 5 0 21 8 35 19 15
10 42 21 60 24 50 10 40 -14 -20 -43 -75 -36 -88 -44 -88 -52 0 -5 -5 -8 -11
-8 -9 0 -36 -18 -97 -65 -7 -5 -33 -29 -58 -52 -25 -24 -50 -43 -55 -43 -5 0
-9 -3 -9 -7 0 -5 -27 -36 -60 -71 -32 -35 -62 -72 -65 -83 -4 -10 -10 -19 -14
-19 -4 0 -13 -12 -20 -26 -11 -25 -10 -26 11 -21 33 8 200 26 293 32 72 4 99
7 200 20 31 3 103 18 167 34 20 5 39 6 42 3 4 -3 6 0 6 6 0 7 7 12 15 12 8 0
39 11 70 24 30 14 55 22 55 18 0 -4 4 -2 8 3 4 6 32 27 62 47 60 39 136 98
127 98 -3 0 11 17 32 38 55 56 71 83 65 109 -5 19 -2 23 15 23 55 0 144 322
99 357 -7 6 -58 18 -113 27 -55 10 -111 20 -125 23 -39 9 -86 9 -116 1z m-234
-348 c0 -5 -12 -12 -27 -16 -16 -3 -38 -10 -51 -15 -33 -13 -52 -11 -52 5 0 8
16 18 38 23 55 13 92 15 92 3z"/>
<path d="M1753 2067 c-21 -43 -36 -88 -31 -92 3 -3 12 16 21 42 8 27 20 47 26
46 13 -3 15 13 3 21 -5 3 -14 -5 -19 -17z"/>
<path d="M1786 2020 c4 -19 10 -42 15 -50 11 -18 1 34 -13 65 -5 13 -6 9 -2
-15z"/>
<path d="M1815 1926 c8 -36 80 -185 179 -370 76 -143 111 -230 109 -279 -2
-57 -85 -132 -155 -141 -47 -6 -96 19 -168 84 -70 63 -121 89 -170 86 -44 -3
-113 -35 -155 -71 -26 -23 -30 -24 -35 -9 -11 30 19 131 70 241 28 58 50 108
50 112 -1 16 -83 -134 -111 -204 -25 -63 -33 -110 -33 -195 -2 -221 107 -376
287 -409 265 -49 454 121 451 404 -1 142 -28 213 -180 481 -41 71 -90 168
-110 215 -19 46 -33 71 -29 55z"/>
<path d="M1676 1869 c-15 -34 -25 -63 -23 -65 2 -2 16 24 30 58 15 34 25 63
23 65 -2 2 -15 -24 -30 -58z"/>
<path d="M1618 1733 c-7 -16 -27 -52 -45 -81 -18 -29 -33 -55 -33 -57 0 -12
16 -3 25 14 6 10 20 37 33 60 27 49 44 91 37 91 -3 0 -11 -12 -17 -27z"/>
<path d="M1895 1497 c-11 -29 -18 -55 -17 -59 1 -5 -2 -8 -7 -8 -10 0 -25 -50
-26 -93 -2 -34 41 -85 75 -91 59 -9 116 51 104 109 -7 32 -53 118 -66 123 -4
2 -8 10 -8 18 0 9 -4 12 -10 9 -5 -3 -7 0 -4 8 3 8 -1 19 -9 25 -11 9 -17 1
-32 -41z"/>
<path d="M582 1338 c-6 -6 -21 -12 -34 -13 -13 -1 -32 -5 -43 -9 -11 -5 -33
-13 -50 -19 -16 -6 -42 -19 -57 -29 -14 -10 -30 -18 -35 -18 -5 0 -15 -11 -23
-24 -12 -23 -11 -48 5 -106 3 -14 9 -38 12 -55 15 -87 91 -286 114 -300 5 -4
7 -10 5 -14 -3 -4 4 -17 14 -29 11 -12 20 -25 20 -31 0 -11 150 -166 150 -154
0 4 4 3 8 -2 7 -10 112 -79 122 -81 3 0 32 -13 65 -28 33 -15 71 -30 84 -32
14 -3 28 -7 33 -10 8 -5 20 -8 78 -19 14 -3 34 -7 45 -9 120 -23 178 -25 199
-5 17 17 17 18 -3 31 -33 20 -27 39 12 34 17 -2 43 -8 57 -11 14 -4 65 -9 114
-11 87 -3 89 -3 115 26 16 19 35 30 52 30 14 0 35 8 46 18 19 16 20 20 8 47
-7 17 -14 27 -14 22 -1 -4 -18 1 -38 11 -21 11 -54 22 -73 25 -34 6 -62 12
-105 21 -11 3 -46 12 -79 21 -32 8 -69 16 -82 17 -13 1 -24 6 -24 10 0 4 -8 6
-17 6 -28 -2 -153 62 -153 78 0 10 8 13 23 10 36 -8 91 -30 99 -41 4 -5 8 -7
8 -3 0 4 12 3 28 -4 25 -10 70 -21 136 -34 16 -3 39 -9 50 -13 19 -6 36 -7 89
-3 10 1 16 6 12 11 -3 5 -1 12 4 16 20 12 -3 37 -56 62 -29 14 -56 23 -60 19
-3 -3 -13 0 -21 6 -8 7 -26 14 -40 16 -15 2 -30 9 -34 15 -4 7 -8 9 -8 5 0
-20 -229 109 -230 130 0 6 -5 12 -11 12 -18 0 -83 70 -100 108 -13 26 -14 41
-6 62 14 38 31 33 74 -19 55 -67 103 -115 103 -105 0 5 5 1 11 -8 16 -29 122
-96 162 -103 31 -6 41 -3 61 16 25 24 25 49 0 49 -8 0 -14 7 -14 16 0 8 -4 13
-9 9 -5 -3 -12 4 -16 15 -3 11 -11 20 -16 20 -5 0 -13 8 -16 17 -9 22 -95 151
-120 180 -11 13 -23 20 -27 16 -3 -3 -6 -1 -6 4 0 21 -78 74 -144 97 -36 13
-66 22 -66 19 0 -3 -7 1 -16 8 -21 17 -356 23 -372 7z"/>
</g>
</svg>
